#!OML:ASF H:\ManfredObstacles\Project 1\Capture day 2\Session 1\male.ASF
:FULLY-SPECIFIED
:DEGREES
576
root 0.125709 15.9401 8.31962 -172.104 2.75458 178.432
lowerback -6.69803 -0.10349 -5.10084
upperback 0.952373 0.294457 0.111448
thorax 4.73056 0.0124367 3.0152
lowerneck -35.7683 0.211888 4.03636
upperneck 38.4586 -0.788932 0.441762
head 21.7428 1.00056 -0.450442
rclavicle -4.62796e-015 9.98893e-015
rhumerus -39.1345 -23.5991 -73.4203
rradius 25.93
rwrist 35.0905
rhand -1.16354 -7.03942
rfingers 7.12502
rthumb 24.4754 -35.4956
lclavicle -4.62796e-015 9.98893e-015
lhumerus -28.6638 16.3737 81.156
lradius 19.64
lwrist -54.0499
lhand 3.72446 5.39813
lfingers 7.12502
lthumb 29.1526 33.1355
rfemur -16.9573 7.24158 21.695
rtibia 30.9344
rfoot -11.8517 -17.372
rtoes -11.008
lfemur -13.9805 -6.81796 -25.4714
ltibia 27.6496
lfoot -6.27895 20.2204
ltoes -4.02932
577
root 0.125117 15.9398 8.31398 -172.077 2.76424 178.436
lowerback -6.68237 -0.0979485 -5.09667
upperback 0.947096 0.300417 0.111415
thorax 4.71563 0.0159886 3.01332
lowerneck -35.7978 0.212395 4.08101
upperneck 38.5001 -0.795557 0.403021
head 21.7787 1.0021 -0.479433
rclavicle 9.70318e-015 1.39149e-015
rhumerus -39.0771 -23.5618 -73.495
rradius 25.9562
rwrist 35.0118
rhand -1.16827 -7.0483
rfingers 7.12502
rthumb 24.4709 -35.5051
lclavicle 9.70318e-015 1.39149e-015
lhumerus -28.6447 16.3794 81.1541
lradius 19.6448
lwrist -54.1159
lhand 3.74216 5.39127
lfingers 7.12502
lthumb 29.1695 33.1258
rfemur -16.9665 7.25394 21.696
rtibia 30.9376
rfoot -11.8664 -17.387
rtoes -11.0203
lfemur -13.99 -6.81014 -25.4706
ltibia 27.6555
lfoot -6.2937 20.235
ltoes -4.03245
578
root 0.12446 15.9393 8.30819 -172.053 2.77428 178.436
lowerback -6.65385 -0.0940775 -5.09374
upperback 0.934697 0.303413 0.110306
thorax 4.68623 0.0185978 3.01059
lowerneck -35.8294 0.21678 4.11638
upperneck 38.5511 -0.792254 0.373154
head 21.8224 1.00804 -0.499045
rclavicle 1.17407e-015 -7.95139e-016
rhumerus -39.0355 -23.5051 -73.5718
rradius 25.9903
rwrist 34.9251
rhand -1.1766 -7.05017
rfingers 7.12502
rthumb 24.4629 -35.5081
lclavicle 1.17407e-015 -7.95139e-016
lhumerus -28.6407 16.3762 81.1505
lradius 19.647
lwrist -54.176
lhand 3.72639 5.37881
lfingers 7.12502
lthumb 29.1544 33.1159
rfemur -16.9722 7.2603 21.6942
rtibia 30.9433
rfoot -11.8833 -17.3998
rtoes -11.0371
lfemur -13.9931 -6.80405 -25.4739
ltibia 27.658
lfoot -6.30328 20.2507
ltoes -4.0382
579
root 0.123799 15.9389 8.3022 -172.031 2.78499 178.439
lowerback -6.62242 -0.0937846 -5.08977
upperback 0.923299 0.301263 0.111283
thorax 4.65669 0.0186184 3.00889
lowerneck -35.8439 0.219103 4.12485
upperneck 38.6056 -0.781641 0.366513
head 21.8646 1.01681 -0.499352
rclavicle -7.34882e-015 -1.59028e-015
rhumerus -38.9889 -23.4337 -73.6538
rradius 26.0256
rwrist 34.8593
rhand -1.18334 -7.05006
rfingers 7.12502
rthumb 24.4565 -35.5088
lclavicle -7.34882e-015 -1.59028e-015
lhumerus -28.6353 16.3848 81.1449
lradius 19.6472
lwrist -54.2396
lhand 3.69651 5.36324
lfingers 7.12502
lthumb 29.1259 33.1053
rfemur -16.9761 7.26357 21.6944
rtibia 30.9493
rfoot -11.9002 -17.4103
rtoes -11.0624
lfemur -13.9931 -6.80171 -25.4757
ltibia 27.6587
lfoot -6.30965 20.2694
ltoes -4.04715
580
root 0.123193 15.9384 8.296 -172.011 2.79619 178.439
lowerback -6.59533 -0.0976796 -5.09244
upperback 0.915094 0.294251 0.11513
thorax 4.63337 0.0157744 3.01346
lowerneck -35.8188 0.205234 4.0814
upperneck 38.646 -0.776455 0.397081
head 21.8869 1.021 -0.472531
rclavicle 4.05024e-015 1.3418e-015
rhumerus -38.9365 -23.3437 -73.7415
rradius 26.0646
rwrist 34.7913
rhand -1.18181 -7.0582
rfingers 7.12502
rthumb 24.4579 -35.5168
lclavicle 4.05024e-015 1.3418e-015
lhumerus -28.6265 16.4039 81.1405
lradius 19.6522
lwrist -54.2924
lhand 3.68018 5.35574
lfingers 7.12502
lthumb 29.1103 33.1005
rfemur -16.9768 7.2694 21.6924
rtibia 30.9543
rfoot -11.9197 -17.4218
rtoes -11.0845
lfemur -13.9906 -6.8014 -25.4798
ltibia 27.6589
lfoot -6.31471 20.2891
ltoes -4.05289
581
root 0.122604 15.9379 8.28946 -171.985 2.80522 178.439
lowerback -6.58376 -0.10348 -5.09666
upperback 0.912052 0.285843 0.119498
thorax 4.62437 0.0117108 3.01942
lowerneck -35.8156 0.194911 4.02941
upperneck 38.6797 -0.769069 0.436198
head 21.9107 1.02474 -0.439443
rclavicle -4.78326e-015 -8.59744e-015
rhumerus -38.8769 -23.2574 -73.8298
rradius 26.1019
rwrist 34.7308
rhand -1.1729 -7.07815
rfingers 7.12502
rthumb 24.4665 -35.5356
lclavicle -4.78326e-015 -8.59744e-015
lhumerus -28.6041 16.4068 81.1457
lradius 19.6588
lwrist -54.2944
lhand 3.67515 5.36316
lfingers 7.12502
lthumb 29.1055 33.1087
rfemur -16.9802 7.27301 21.6898
rtibia 30.9578
rfoot -11.9422 -17.4325
rtoes -11.1028
lfemur -13.9919 -6.80289 -25.4831
ltibia 27.6591
lfoot -6.32279 20.3081
ltoes -4.06234
582
root 0.122125 15.9376 8.28276 -171.953 2.813 178.442
lowerback -6.5891 -0.108403 -5.10198
upperback 0.914778 0.279848 0.123719
thorax 4.63076 0.00829648 3.02625
lowerneck -35.8049 0.176088 3.96689
upperneck 38.6957 -0.773947 0.481564
head 21.9197 1.02192 -0.405203
rclavicle -8.69683e-016 2.33572e-015
rhumerus -38.8088 -23.1899 -73.9137
rradius 26.1318
rwrist 34.68
rhand -1.16929 -7.09033
rfingers 7.12502
rthumb 24.4699 -35.5473
lclavicle -8.69683e-016 2.33572e-015
lhumerus -28.5637 16.3855 81.1648
lradius 19.6682
lwrist -54.2412
lhand 3.6775 5.38988
lfingers 7.12502
lthumb 29.1078 33.1351
rfemur -16.9885 7.28245 21.6884
rtibia 30.9598
rfoot -11.9671 -17.4458
rtoes -11.1068
lfemur -13.9989 -6.80849 -25.4836
ltibia 27.6589
lfoot -6.33118 20.3287
ltoes -4.06983
583
root 0.121679 15.9373 8.27584 -171.917 2.82056 178.442
lowerback -6.60433 -0.109471 -5.10907
upperback 0.920638 0.280013 0.12466
thorax 4.6455 0.00767416 3.03135
lowerneck -35.8211 0.161848 3.92563
upperneck 38.6958 -0.786086 0.511025
head 21.9245 1.01519 -0.385944
rclavicle -1.76421e-015 -3.72721e-015
rhumerus -38.7413 -23.1389 -73.9932
rradius 26.1601
rwrist 34.6141
rhand -1.17217 -7.09393
rfingers 7.12502
rthumb 24.4672 -35.5512
lclavicle -1.76421e-015 -3.72721e-015
lhumerus -28.5083 16.3302 81.1973
lradius 19.6797
lwrist -54.1629
lhand 3.68186 5.41896
lfingers 7.12502
lthumb 29.1119 33.1634
rfemur -16.9989 7.2975 21.6838
rtibia 30.9605
rfoot -11.9923 -17.4645
rtoes -11.1137
lfemur -14.0083 -6.81478 -25.4861
ltibia 27.6585
lfoot -6.34397 20.3501
ltoes -4.07607
584
root 0.121345 15.937 8.26885 -171.881 2.83066 178.441
lowerback -6.62342 -0.106564 -5.11871
upperback 0.930509 0.286123 0.123845
thorax 4.66609 0.00972339 3.03673
lowerneck -35.8546 0.165835 3.91924
upperneck 38.6632 -0.791028 0.517313
head 21.9107 1.00937 -0.384382
rclavicle -1.4474e-015 1.02871e-014
rhumerus -38.6678 -23.1011 -74.0692
rradius 26.1822
rwrist 34.5404
rhand -1.18227 -7.08779
rfingers 7.12502
rthumb 24.4575 -35.5464
lclavicle -1.4474e-015 1.02871e-014
lhumerus -28.4384 16.2445 81.2459
lradius 19.6954
lwrist -54.054
lhand 3.68261 5.45177
lfingers 7.12502
lthumb 29.1126 33.1961
rfemur -17.0098 7.32186 21.6771
rtibia 30.9601
rfoot -12.0151 -17.4889
rtoes -11.1216
lfemur -14.018 -6.82181 -25.4905
ltibia 27.6578
lfoot -6.35598 20.3747
ltoes -4.08492
